<?xml version="1.0" encoding="utf-8"?>
<!-- Generator: Adobe Illustrator 20.1.0, SVG Export Plug-In . SVG Version: 6.00 Build 0)  -->
<svg version="1.1" id="Layer_1" xmlns="http://www.w3.org/2000/svg" xmlns:xlink="http://www.w3.org/1999/xlink" x="0px" y="0px"
	 viewBox="0 0 144 40" style="enable-background:new 0 0 144 40;" xml:space="preserve">
<style type="text/css">
	.st0{fill:#2BA6DE;}
	.st1{fill:#707174;}
	.st2{fill:#FFFFFF;}
</style>
<g>
	<g>
		<polyline class="st0" points="25.8,30.9 1.2,27.8 1.1,15.8 10,15.9 		"/>
		<g>
			<polygon class="st1" points="28.7,30 25.6,31 25.6,14.4 28.7,15.4 			"/>
			<polygon class="st1" points="2.8,15.8 28.7,15.8 28.7,0.3 2.8,3.6 			"/>
			<path class="st2" d="M11.7,6.1C11.6,6.1,11.6,6.1,11.7,6.1C11.6,6.1,11.6,6.1,11.7,6.1c-0.1,0.1-0.1,0.1-0.1,0.1c0,0,0,0,0,0
				c-0.2,0.3-0.3,0.7-0.3,1.1c0,0,0,0,0,0c0,0,0,0.1,0,0.1c0,0,0,0,0,0c0,0,0,0.1,0,0.1c0,0,0,0,0,0v0.1v0v0c0,0.6,0.2,1.1,0.4,1.4
				c0,0.1,0.1,0.1,0.1,0.2c0,0,0,0,0,0c0,0,0,0,0,0.1c0,0,0,0,0,0c0,0,0,0,0,0c0,0,0,0,0,0c0,0,0,0,0,0c0,0,0,0,0.1,0.1c0,0,0,0,0,0
				c0.2,0.2,0.5,0.3,0.8,0.4h0c0,0,0.1,0,0.1,0c0,0,0,0,0,0c0,0,0.1,0,0.1,0c0,0,0,0,0,0c0,0,0,0,0.1,0c0,0,0,0,0,0c0,0,0,0,0,0
				c0,0,0,0,0,0c0,0,0,0,0,0c0.4-0.1,0.8-0.3,1.2-0.7c0,0,0,0,0.1-0.1c0,0,0,0,0,0c0,0,0-0.1,0.1-0.1c0,0,0,0,0,0c0,0,0,0,0-0.1
				c0,0,0,0,0,0c0,0,0,0,0,0c0,0,0,0,0-0.1c0,0,0,0,0,0c0,0,0,0,0-0.1c0,0,0,0,0,0c0,0,0-0.1,0-0.1c0,0,0,0,0,0
				c0.1-0.2,0.2-0.5,0.2-0.7c0,0,0,0,0,0c0,0,0-0.1,0-0.1c0,0,0,0,0,0c0,0,0-0.1,0-0.1c0,0,0,0,0,0c0,0,0-0.1,0-0.1c0,0,0,0,0-0.1
				c0,0,0,0,0-0.1c0,0,0,0,0-0.1c0,0,0,0,0-0.1c0,0,0,0,0-0.1c0,0,0,0,0,0c0,0,0,0,0,0c0,0,0,0,0,0c0,0,0-0.1,0-0.1c0,0,0,0,0,0
				c0-0.5-0.2-0.9-0.4-1.3c-0.1-0.1-0.2-0.2-0.2-0.3c0,0,0,0,0,0c0,0,0,0,0,0c0,0,0,0,0,0c0,0,0,0,0,0c0,0,0,0-0.1,0c0,0,0,0,0,0
				C14,5.2,13.8,5.1,13.6,5c0,0,0,0,0,0c0,0-0.1,0-0.1,0c0,0,0,0,0,0c0,0,0,0-0.1,0c0,0,0,0,0,0c0,0,0,0,0,0c0,0,0,0,0,0
				c0,0,0,0,0,0c0,0,0,0-0.1,0c0,0,0,0,0,0c0,0,0,0-0.1,0c0,0,0,0,0,0c0,0,0,0,0,0c0,0,0,0-0.1,0c0,0,0,0,0,0c0,0,0,0,0,0
				c0,0,0,0-0.1,0c0,0,0,0,0,0c-0.3,0.1-0.6,0.3-0.8,0.5C11.9,5.7,11.8,5.9,11.7,6.1C11.7,6,11.7,6,11.7,6.1
				C11.7,6,11.7,6.1,11.7,6.1"/>
			<g>
				<polygon class="st0" points="25.7,15.8 2.8,15.8 2.8,27.9 25.7,31 				"/>
			</g>
			<path class="st2" d="M20.3,12.3c-0.7,0-1.4,0.5-1.8,1.2c-0.5,0.5-1.2,0.8-2,0.8c-0.8,0-1.5-0.3-1.9-0.7h0c-0.4-0.6-0.9-1-1.5-0.9
				c-0.6,0-1.1,0.4-1.5,1l0,0c-0.4,0.5-1,0.7-1.7,0.8c-0.6,0-1.2-0.2-1.5-0.6c-0.3-0.6-0.8-0.9-1.3-0.9c-0.8,0-1.5,1.1-1.5,2.3
				c0,1.2,0.7,2.2,1.5,2.2c0.5,0,1-0.4,1.3-0.9c0.4-0.4,0.9-0.7,1.5-0.7c0.6,0,1.1,0.2,1.5,0.5c-0.1,1-0.3,2.2-0.8,3.4
				c-0.5,1.2-1,2.1-1.6,2.7c0,0,0,0,0,0c0,0,0,0,0,0c0,0,0,0-0.1,0c0,0,0,0,0,0c0,0,0,0,0,0c0,0,0,0,0,0c0,0,0,0,0,0
				c-0.1,0-0.2,0.1-0.3,0.2c-0.2,0.1-0.3,0.3-0.5,0.5c0,0,0,0,0,0c0,0,0,0,0,0c0,0,0,0,0,0.1c0,0,0,0,0,0c-0.2,0.3-0.3,0.6-0.3,1
				c0,0,0,0,0,0c0,0,0,0.1,0,0.1c0,0,0,0,0,0c0,0,0,0.1,0,0.1v0c0,0,0,0,0,0.1c0,0,0,0,0,0v0c0,0.4,0.1,0.9,0.3,1.2
				c0.1,0.3,0.3,0.5,0.4,0.7c0,0,0,0,0,0c0,0,0,0,0.1,0.1c0,0,0,0,0,0c0,0,0,0,0,0c0,0,0,0,0,0c0,0,0,0,0,0c0,0,0,0,0,0c0,0,0,0,0,0
				c0,0,0,0,0,0c0,0,0,0,0,0c0,0,0,0,0,0c0,0,0,0,0,0c0,0,0,0,0.1,0c0,0,0,0,0,0c0,0,0,0,0.1,0c0,0,0,0,0,0c0,0,0,0,0.1,0
				c0,0,0,0,0,0C9,27,9.2,27.1,9.3,27.1h0c0,0,0,0,0.1,0c0,0,0,0,0,0c0,0,0,0,0.1,0c0,0,0,0,0,0c0,0,0,0,0,0c0.2,0,0.5-0.1,0.7-0.3
				c0.2-0.1,0.3-0.3,0.4-0.5c0,0,0,0,0,0c0,0,0,0,0-0.1c0,0,0,0,0,0c0,0,0,0,0,0c0,0,0,0,0-0.1c0,0,0,0,0,0c0,0,0,0,0-0.1
				c0,0,0,0,0,0c0,0,0,0,0,0c0,0,0,0,0-0.1c0,0,0,0,0,0c0,0,0,0,0-0.1c0,0,0,0,0,0c0,0,0,0,0,0c0,0,0,0,0-0.1c0,0,0,0,0,0
				c0,0,0-0.1,0-0.1c0,0,0,0,0,0c0,0,0-0.1,0-0.1c0,0,0,0,0,0c0-0.2,0-0.5,0-0.7c0,0,0,0,0,0c0,0,0-0.1,0-0.1c0,0,0,0,0,0
				c0,0,0,0,0,0c0-0.3-0.1-0.5-0.2-0.8c0.1-0.9,0.3-2.1,0.8-3.3c0.4-1.1,1-2,1.5-2.6c0.5,0.6,1.1,1.6,1.5,2.8
				c0.6,1.4,0.9,2.8,0.9,3.9c0,0.1-0.1,0.2-0.1,0.3c0,0,0,0,0,0c0,0,0,0.1,0,0.1c0,0,0,0,0,0c0,0,0,0.1,0,0.1c0,0,0,0,0,0
				c0,0,0,0.1,0,0.1c0,0,0,0,0,0c0,0,0,0,0,0.1c0,0,0,0,0,0.1c0,0,0,0,0,0.1c0,0,0,0,0,0.1c0,0,0,0,0,0v0c0,0,0,0,0,0.1
				c0,0,0,0,0,0.1c0,0,0,0,0,0c0,0,0,0.1,0,0.1c0,0,0,0,0,0c0,0.4,0.2,0.8,0.3,1.2c0.1,0.3,0.3,0.5,0.5,0.8c0,0,0,0,0,0
				c0,0,0,0,0.1,0.1c0,0,0,0,0,0c0,0,0,0,0,0c0,0,0,0,0,0c0,0,0,0,0,0c0,0,0,0,0,0c0,0,0,0,0,0c0,0,0,0,0,0c0,0,0,0,0,0
				c0,0,0,0,0.1,0c0,0,0,0,0,0c0,0,0,0,0.1,0c0,0,0,0,0,0c0,0,0,0,0.1,0c0,0,0,0,0,0c0,0,0.1,0,0.1,0c0,0,0,0,0,0
				c0.2,0.1,0.3,0.1,0.5,0.1c0,0,0,0,0,0c0,0,0.1,0,0.1,0c0,0,0,0,0,0c0,0,0,0,0.1,0c0,0,0,0,0,0c0,0,0,0,0,0c0.4,0,0.7-0.2,1-0.4
				c0,0,0,0,0.1-0.1c0,0,0,0,0,0c0,0,0,0,0,0c0,0,0,0,0,0c0,0,0,0,0,0c0,0,0,0,0-0.1c0,0,0,0,0,0c0,0,0,0,0.1-0.1c0,0,0,0,0,0
				c0.2-0.3,0.4-0.6,0.4-1c0,0,0,0,0,0c0,0,0-0.1,0-0.1c0,0,0,0,0,0c0,0,0-0.1,0-0.1c0,0,0,0,0,0c0,0,0-0.1,0-0.1c0,0,0,0,0,0
				c0,0,0-0.1,0-0.1c0,0,0,0,0,0c0,0,0,0,0-0.1c0,0,0,0,0,0v0c0-0.6-0.2-1.1-0.4-1.6c-0.1-0.2-0.3-0.5-0.5-0.7c0,0,0,0,0,0
				c0,0,0,0-0.1,0c0,0,0,0,0,0c0,0,0,0,0,0c0,0,0,0-0.1,0c0,0,0,0,0,0c0,0,0,0,0,0c0,0,0,0-0.1,0c0,0,0,0,0,0c0,0,0,0-0.1,0
				c0,0,0,0,0,0c0,0,0,0,0,0c0,0,0,0-0.1,0c0,0,0,0,0,0c0,0,0,0-0.1,0c0,0,0,0,0,0c0,0-0.1,0-0.1,0c0,0,0,0,0,0
				c-0.1,0-0.1,0-0.2-0.1c-0.7-0.7-1.4-1.9-2-3.3c-0.5-1.3-0.8-2.5-0.9-3.5c0.4-0.4,1.1-0.6,1.8-0.6c0.8,0,1.5,0.3,2,0.8
				c0.4,0.7,1,1.1,1.8,1.1c1.3,0,2.3-1.2,2.3-2.8C22.6,13.4,21.5,12.2,20.3,12.3"/>
		</g>
	</g>
	<path class="st2" d="M35,3.4c0.2,0,0.5-0.1,0.7-0.1c0.2,0,0.5,0,0.7,0c0.2,0,0.5,0,0.7,0c0.2,0,0.5,0.1,0.7,0.1v24.2
		c-0.2,0-0.5,0.1-0.7,0.1c-0.2,0-0.5,0-0.7,0c-0.3,0-0.5,0-0.8,0c-0.2,0-0.5-0.1-0.7-0.1V3.4z M39.1,15.3l6.6-11.9
		c0.3,0,0.5-0.1,0.8-0.1c0.3,0,0.5,0,0.7,0c0.2,0,0.5,0,0.8,0c0.3,0,0.6,0.1,0.9,0.1L42.4,15l7.4,12.6c-0.3,0-0.6,0.1-0.9,0.1
		c-0.3,0-0.6,0-0.8,0c-0.2,0-0.5,0-0.7,0c-0.3,0-0.5-0.1-0.8-0.1L39.1,15.3z"/>
	<path class="st2" d="M60.2,28c-1.5,0-2.8-0.3-3.9-0.9c-1.1-0.6-2-1.5-2.7-2.6c-0.7-1.1-1.3-2.4-1.6-4c-0.4-1.5-0.5-3.2-0.5-5
		c0-1.8,0.2-3.5,0.5-5c0.4-1.5,0.9-2.8,1.6-4c0.7-1.1,1.6-2,2.7-2.6C57.4,3.3,58.7,3,60.2,3C61.7,3,62.9,3.3,64,4
		c1.1,0.6,2,1.5,2.7,2.6c0.7,1.1,1.2,2.4,1.6,4c0.3,1.5,0.5,3.2,0.5,5c0,1.8-0.2,3.5-0.5,5c-0.3,1.5-0.9,2.8-1.6,4
		c-0.7,1.1-1.6,2-2.7,2.6C62.9,27.7,61.7,28,60.2,28 M60.2,25.1c1,0,1.8-0.2,2.5-0.7c0.7-0.4,1.3-1.1,1.7-1.9c0.5-0.8,0.8-1.8,1-3
		c0.2-1.2,0.3-2.5,0.3-4c0-1.5-0.1-2.8-0.3-4c-0.2-1.2-0.6-2.2-1-3c-0.5-0.8-1-1.4-1.7-1.9c-0.7-0.4-1.5-0.7-2.5-0.7
		c-1,0-1.8,0.2-2.5,0.7c-0.7,0.4-1.3,1.1-1.7,1.9c-0.5,0.8-0.8,1.8-1,3c-0.2,1.2-0.3,2.5-0.3,4c0,1.5,0.1,2.8,0.3,4
		c0.2,1.2,0.6,2.2,1,3c0.5,0.8,1,1.5,1.7,1.9C58.4,24.8,59.2,25.1,60.2,25.1"/>
	<path class="st2" d="M72.8,3.4c0.2,0,0.4-0.1,0.7-0.1c0.2,0,0.5,0,0.7,0c0.2,0,0.4,0,0.7,0c0.2,0,0.5,0.1,0.7,0.1l9,18.2V3.4
		c0.2,0,0.5-0.1,0.7-0.1c0.2,0,0.5,0,0.7,0c0.2,0,0.4,0,0.7,0c0.2,0,0.4,0.1,0.7,0.1v24.2c-0.2,0-0.4,0.1-0.7,0.1
		c-0.2,0-0.5,0-0.7,0c-0.2,0-0.4,0-0.7,0c-0.2,0-0.5-0.1-0.7-0.1l-9-18.1v18.1c-0.2,0-0.4,0.1-0.7,0.1c-0.2,0-0.5,0-0.7,0
		c-0.2,0-0.5,0-0.7,0c-0.2,0-0.5-0.1-0.6-0.1V3.4z"/>
	<path class="st2" d="M96.9,6.4h-5.5c0-0.2-0.1-0.5-0.1-0.7c0-0.3,0-0.5,0-0.8c0-0.2,0-0.5,0-0.8c0-0.3,0-0.5,0.1-0.7h14
		c0,0.2,0.1,0.5,0.1,0.7c0,0.3,0,0.5,0,0.7c0,0.2,0,0.5,0,0.8c0,0.3,0,0.5-0.1,0.8h-5.5v21.4c-0.5,0.1-0.9,0.1-1.5,0.1
		c-0.6,0-1.1,0-1.5-0.1V6.4z"/>
	<path class="st2" d="M110,3.3h12.3c0.1,0.5,0.1,0.9,0.1,1.5c0,0.2,0,0.5,0,0.8c0,0.3,0,0.5-0.1,0.7h-9.1v7h7.3
		c0,0.2,0.1,0.5,0.1,0.7c0,0.3,0,0.5,0,0.8c0,0.2,0,0.5,0,0.8c0,0.3-0.1,0.5-0.1,0.7h-7.3v8.3h9.4c0.1,0.5,0.1,0.9,0.1,1.5
		c0,0.2,0,0.5,0,0.8c0,0.3,0,0.5-0.1,0.7H110V3.3z"/>
	<path class="st2" d="M126.7,3.3c0.2,0,0.5-0.1,0.7-0.1c0.2,0,0.5,0,0.7,0c0.2,0,0.5,0,0.7,0c0.2,0,0.5,0.1,0.7,0.1v10h8.6v-10
		c0.2,0,0.4-0.1,0.7-0.1c0.2,0,0.5,0,0.7,0c0.2,0,0.5,0,0.7,0c0.3,0,0.5,0.1,0.7,0.1v24.3c-0.2,0-0.4,0.1-0.7,0.1
		c-0.2,0-0.5,0-0.8,0c-0.2,0-0.5,0-0.7,0c-0.3,0-0.5-0.1-0.7-0.1V16.4h-8.6v11.2c-0.2,0-0.5,0.1-0.7,0.1c-0.2,0-0.5,0-0.7,0
		c-0.2,0-0.5,0-0.7,0c-0.3,0-0.5-0.1-0.7-0.1V3.3z"/>
	<g>
		<path class="st2" d="M5,36.9c0,0.2,0,0.4-0.1,0.5c-0.1,0.2-0.2,0.3-0.3,0.4C4.4,38,4.2,38.1,4,38.2c-0.2,0.1-0.5,0.1-0.8,0.1
			c-0.3,0-0.6,0-0.9-0.1c-0.3-0.1-0.5-0.2-0.8-0.3v-0.8h0c0.2,0.2,0.5,0.3,0.8,0.5c0.3,0.1,0.6,0.2,0.8,0.2c0.4,0,0.7-0.1,0.9-0.2
			c0.2-0.1,0.3-0.3,0.3-0.6c0-0.2,0-0.4-0.1-0.5c-0.1-0.1-0.2-0.2-0.4-0.2c-0.2,0-0.3-0.1-0.5-0.1c-0.2,0-0.4-0.1-0.6-0.1
			c-0.4-0.1-0.7-0.2-0.9-0.4c-0.2-0.2-0.3-0.5-0.3-0.8c0-0.4,0.2-0.7,0.5-0.9c0.3-0.2,0.7-0.4,1.2-0.4c0.3,0,0.6,0,0.9,0.1
			c0.3,0.1,0.5,0.1,0.7,0.2v0.7h0c-0.2-0.1-0.4-0.3-0.7-0.4C3.8,34.1,3.6,34,3.3,34c-0.3,0-0.6,0.1-0.8,0.2
			c-0.2,0.1-0.3,0.3-0.3,0.5c0,0.2,0,0.3,0.1,0.5c0.1,0.1,0.3,0.2,0.5,0.3c0.1,0,0.3,0.1,0.6,0.1c0.2,0,0.4,0.1,0.6,0.1
			c0.3,0.1,0.6,0.2,0.8,0.4C4.9,36.3,5,36.5,5,36.9z"/>
		<path class="st2" d="M8.6,38.2H8v-0.4c-0.1,0-0.1,0.1-0.2,0.1c-0.1,0.1-0.2,0.1-0.3,0.2c-0.1,0-0.2,0.1-0.3,0.1
			c-0.1,0-0.3,0-0.4,0c-0.3,0-0.6-0.1-0.8-0.3c-0.2-0.2-0.3-0.5-0.3-0.8c0-0.3,0.1-0.5,0.2-0.6c0.1-0.2,0.3-0.3,0.5-0.4
			C6.5,36.1,6.8,36,7.1,36c0.3,0,0.6-0.1,0.9-0.1v-0.1c0-0.1,0-0.2-0.1-0.3c0-0.1-0.1-0.2-0.2-0.2c-0.1,0-0.2-0.1-0.3-0.1
			c-0.1,0-0.2,0-0.4,0c-0.1,0-0.3,0-0.5,0.1c-0.2,0-0.4,0.1-0.6,0.2h0v-0.6c0.1,0,0.3-0.1,0.5-0.1c0.2,0,0.4-0.1,0.6-0.1
			c0.2,0,0.4,0,0.6,0.1c0.2,0,0.3,0.1,0.5,0.2c0.1,0.1,0.2,0.2,0.3,0.4c0.1,0.2,0.1,0.3,0.1,0.6V38.2z M8,37.3v-1
			c-0.2,0-0.4,0-0.6,0c-0.2,0-0.4,0.1-0.6,0.1c-0.2,0-0.3,0.1-0.4,0.2c-0.1,0.1-0.2,0.2-0.2,0.4c0,0.2,0.1,0.3,0.2,0.4
			c0.1,0.1,0.3,0.2,0.5,0.2c0.2,0,0.4,0,0.5-0.1C7.7,37.5,7.9,37.4,8,37.3z"/>
		<path class="st2" d="M10.7,38.3c0,0.4-0.1,0.7-0.3,0.9c-0.2,0.2-0.5,0.3-0.8,0.3c-0.1,0-0.2,0-0.3,0c-0.1,0-0.2,0-0.3-0.1v-0.6h0
			c0.1,0,0.1,0,0.2,0.1c0.1,0,0.2,0,0.3,0c0.1,0,0.3,0,0.4-0.1c0.1,0,0.2-0.1,0.2-0.2c0-0.1,0.1-0.2,0.1-0.3c0-0.1,0-0.3,0-0.4v-2.8
			H9.4v-0.5h1.3V38.3z M10.7,34.1h-0.6v-0.6h0.6V34.1z"/>
		<path class="st2" d="M14.4,38.2h-0.6v-0.4c-0.1,0-0.1,0.1-0.2,0.1c-0.1,0.1-0.2,0.1-0.3,0.2c-0.1,0-0.2,0.1-0.3,0.1
			c-0.1,0-0.3,0-0.4,0c-0.3,0-0.6-0.1-0.8-0.3c-0.2-0.2-0.3-0.5-0.3-0.8c0-0.3,0.1-0.5,0.2-0.6c0.1-0.2,0.3-0.3,0.5-0.4
			c0.2-0.1,0.5-0.2,0.7-0.2c0.3,0,0.6-0.1,0.9-0.1v-0.1c0-0.1,0-0.2-0.1-0.3c0-0.1-0.1-0.2-0.2-0.2c-0.1,0-0.2-0.1-0.3-0.1
			c-0.1,0-0.2,0-0.4,0c-0.1,0-0.3,0-0.5,0.1c-0.2,0-0.4,0.1-0.6,0.2h0v-0.6c0.1,0,0.3-0.1,0.5-0.1c0.2,0,0.4-0.1,0.6-0.1
			c0.2,0,0.4,0,0.6,0.1c0.2,0,0.3,0.1,0.5,0.2c0.1,0.1,0.2,0.2,0.3,0.4c0.1,0.2,0.1,0.3,0.1,0.6V38.2z M13.9,37.3v-1
			c-0.2,0-0.4,0-0.6,0c-0.2,0-0.4,0.1-0.6,0.1c-0.2,0-0.3,0.1-0.4,0.2c-0.1,0.1-0.2,0.2-0.2,0.4c0,0.2,0.1,0.3,0.2,0.4
			c0.1,0.1,0.3,0.2,0.5,0.2c0.2,0,0.4,0,0.5-0.1C13.6,37.5,13.7,37.4,13.9,37.3z"/>
		<path class="st2" d="M20.5,38.2h-0.6v-2c0-0.1,0-0.3,0-0.4c0-0.1,0-0.2-0.1-0.3c0-0.1-0.1-0.2-0.2-0.2c-0.1,0-0.2-0.1-0.4-0.1
			c-0.2,0-0.3,0-0.5,0.1c-0.2,0.1-0.3,0.2-0.5,0.3c0,0,0,0.1,0,0.2c0,0.1,0,0.1,0,0.2v2.2h-0.6v-2c0-0.2,0-0.3,0-0.4
			c0-0.1,0-0.2-0.1-0.3c0-0.1-0.1-0.2-0.2-0.2c-0.1,0-0.2-0.1-0.4-0.1c-0.2,0-0.3,0-0.5,0.1c-0.2,0.1-0.3,0.2-0.5,0.3v2.6h-0.6v-3.5
			h0.6v0.4c0.2-0.1,0.4-0.3,0.5-0.4c0.2-0.1,0.4-0.1,0.6-0.1c0.2,0,0.4,0,0.6,0.1c0.2,0.1,0.3,0.2,0.4,0.4c0.2-0.2,0.4-0.3,0.6-0.4
			c0.2-0.1,0.4-0.1,0.6-0.1c0.4,0,0.6,0.1,0.8,0.3c0.2,0.2,0.3,0.6,0.3,1V38.2z"/>
		<path class="st2" d="M26.7,36.4c0,0.3,0,0.5-0.1,0.8c-0.1,0.2-0.2,0.4-0.3,0.6c-0.1,0.2-0.3,0.3-0.5,0.4c-0.2,0.1-0.4,0.1-0.6,0.1
			c-0.2,0-0.3,0-0.5-0.1c-0.1,0-0.3-0.1-0.4-0.2v1.4h-0.6v-4.7h0.6v0.4c0.2-0.1,0.3-0.2,0.5-0.3c0.2-0.1,0.4-0.1,0.6-0.1
			c0.4,0,0.7,0.2,1,0.5C26.6,35.4,26.7,35.8,26.7,36.4z M26.1,36.4c0-0.4-0.1-0.7-0.2-0.9c-0.1-0.2-0.4-0.3-0.6-0.3
			c-0.2,0-0.3,0-0.5,0.1c-0.2,0.1-0.3,0.2-0.5,0.3v2c0.2,0.1,0.3,0.1,0.4,0.2c0.1,0,0.2,0,0.4,0c0.3,0,0.6-0.1,0.7-0.3
			C26,37.2,26.1,36.9,26.1,36.4z"/>
		<path class="st2" d="M30.5,36.5c0,0.6-0.1,1-0.4,1.3c-0.3,0.3-0.7,0.5-1.1,0.5c-0.5,0-0.9-0.2-1.1-0.5c-0.3-0.3-0.4-0.8-0.4-1.3
			c0-0.6,0.1-1,0.4-1.3c0.3-0.3,0.7-0.5,1.1-0.5c0.5,0,0.9,0.2,1.1,0.5C30.4,35.4,30.5,35.9,30.5,36.5z M29.9,36.5
			c0-0.4-0.1-0.8-0.3-1c-0.2-0.2-0.4-0.3-0.7-0.3c-0.3,0-0.5,0.1-0.7,0.3C28,35.7,28,36,28,36.5c0,0.4,0.1,0.8,0.3,1
			c0.2,0.2,0.4,0.3,0.7,0.3c0.3,0,0.5-0.1,0.7-0.3C29.8,37.2,29.9,36.9,29.9,36.5z"/>
		<path class="st2" d="M33.8,37.2c0,0.3-0.1,0.6-0.4,0.8c-0.3,0.2-0.6,0.3-1,0.3c-0.3,0-0.5,0-0.7-0.1c-0.2-0.1-0.4-0.1-0.5-0.2
			v-0.7h0c0.2,0.1,0.4,0.2,0.6,0.3c0.2,0.1,0.4,0.1,0.6,0.1c0.3,0,0.4,0,0.6-0.1c0.1-0.1,0.2-0.2,0.2-0.4c0-0.1,0-0.2-0.1-0.3
			c-0.1-0.1-0.2-0.1-0.4-0.2c-0.1,0-0.2,0-0.3-0.1c-0.1,0-0.2-0.1-0.4-0.1c-0.3-0.1-0.5-0.2-0.6-0.4c-0.1-0.2-0.2-0.3-0.2-0.6
			c0-0.1,0-0.3,0.1-0.4c0.1-0.1,0.1-0.2,0.3-0.3c0.1-0.1,0.3-0.2,0.4-0.2c0.2-0.1,0.4-0.1,0.6-0.1c0.2,0,0.4,0,0.6,0.1
			c0.2,0.1,0.4,0.1,0.5,0.2v0.6h0c-0.1-0.1-0.3-0.2-0.5-0.3c-0.2-0.1-0.4-0.1-0.6-0.1c-0.2,0-0.4,0-0.5,0.1
			c-0.1,0.1-0.2,0.2-0.2,0.4c0,0.1,0,0.3,0.1,0.3c0.1,0.1,0.2,0.1,0.4,0.2c0.1,0,0.2,0,0.4,0.1c0.1,0,0.2,0,0.3,0.1
			c0.3,0.1,0.5,0.2,0.6,0.3C33.7,36.7,33.8,36.9,33.8,37.2z"/>
		<path class="st2" d="M35.2,38.2h-0.6v-4.8h0.6V38.2z"/>
		<path class="st2" d="M39.2,36.5c0,0.6-0.1,1-0.4,1.3c-0.3,0.3-0.7,0.5-1.1,0.5c-0.5,0-0.9-0.2-1.1-0.5c-0.3-0.3-0.4-0.8-0.4-1.3
			c0-0.6,0.1-1,0.4-1.3c0.3-0.3,0.7-0.5,1.1-0.5c0.5,0,0.9,0.2,1.1,0.5C39.1,35.4,39.2,35.9,39.2,36.5z M38.6,36.5
			c0-0.4-0.1-0.8-0.3-1c-0.2-0.2-0.4-0.3-0.7-0.3c-0.3,0-0.5,0.1-0.7,0.3c-0.2,0.2-0.3,0.6-0.3,1c0,0.4,0.1,0.8,0.3,1
			c0.2,0.2,0.4,0.3,0.7,0.3c0.3,0,0.5-0.1,0.7-0.3C38.5,37.2,38.6,36.9,38.6,36.5z"/>
		<path class="st2" d="M43,34.7l-1.4,3.5H41l-1.4-3.5h0.6l1,2.8l1-2.8H43z"/>
		<path class="st2" d="M46.5,38.2H46v-2c0-0.2,0-0.3,0-0.4c0-0.1-0.1-0.2-0.1-0.3c-0.1-0.1-0.1-0.2-0.2-0.2c-0.1,0-0.2-0.1-0.4-0.1
			c-0.2,0-0.3,0-0.5,0.1c-0.2,0.1-0.3,0.2-0.5,0.3v2.6h-0.6v-3.5h0.6v0.4c0.2-0.1,0.4-0.3,0.6-0.4c0.2-0.1,0.4-0.1,0.6-0.1
			c0.4,0,0.6,0.1,0.8,0.3c0.2,0.2,0.3,0.5,0.3,1V38.2z"/>
		<path class="st2" d="M48.2,34.1h-0.6v-0.6h0.6V34.1z M48.2,38.2h-0.6v-3.5h0.6V38.2z"/>
		<path class="st2" d="M52.2,38.2h-0.6v-2c0-0.2,0-0.3,0-0.4c0-0.1-0.1-0.2-0.1-0.3c-0.1-0.1-0.1-0.2-0.2-0.2
			c-0.1,0-0.2-0.1-0.4-0.1c-0.2,0-0.3,0-0.5,0.1c-0.2,0.1-0.3,0.2-0.5,0.3v2.6h-0.6v-4.8h0.6v1.7c0.2-0.1,0.4-0.3,0.6-0.4
			c0.2-0.1,0.4-0.1,0.6-0.1c0.4,0,0.6,0.1,0.8,0.3c0.2,0.2,0.3,0.5,0.3,1V38.2z"/>
		<path class="st2" d="M60.4,38.2h-0.6v-2c0-0.1,0-0.3,0-0.4c0-0.1,0-0.2-0.1-0.3c0-0.1-0.1-0.2-0.2-0.2c-0.1,0-0.2-0.1-0.4-0.1
			c-0.2,0-0.3,0-0.5,0.1c-0.2,0.1-0.3,0.2-0.5,0.3c0,0,0,0.1,0,0.2c0,0.1,0,0.1,0,0.2v2.2h-0.6v-2c0-0.2,0-0.3,0-0.4
			c0-0.1,0-0.2-0.1-0.3c0-0.1-0.1-0.2-0.2-0.2c-0.1,0-0.2-0.1-0.4-0.1c-0.2,0-0.3,0-0.5,0.1c-0.2,0.1-0.3,0.2-0.5,0.3v2.6h-0.6v-3.5
			H56v0.4c0.2-0.1,0.4-0.3,0.5-0.4c0.2-0.1,0.4-0.1,0.6-0.1c0.2,0,0.4,0,0.6,0.1c0.2,0.1,0.3,0.2,0.4,0.4c0.2-0.2,0.4-0.3,0.6-0.4
			c0.2-0.1,0.4-0.1,0.6-0.1c0.4,0,0.6,0.1,0.8,0.3c0.2,0.2,0.3,0.6,0.3,1V38.2z"/>
		<path class="st2" d="M64.4,36.5c0,0.6-0.1,1-0.4,1.3c-0.3,0.3-0.7,0.5-1.1,0.5c-0.5,0-0.9-0.2-1.1-0.5c-0.3-0.3-0.4-0.8-0.4-1.3
			c0-0.6,0.1-1,0.4-1.3c0.3-0.3,0.7-0.5,1.1-0.5c0.5,0,0.9,0.2,1.1,0.5C64.2,35.4,64.4,35.9,64.4,36.5z M63.8,36.5
			c0-0.4-0.1-0.8-0.3-1c-0.2-0.2-0.4-0.3-0.7-0.3c-0.3,0-0.5,0.1-0.7,0.3c-0.2,0.2-0.3,0.6-0.3,1c0,0.4,0.1,0.8,0.3,1
			c0.2,0.2,0.4,0.3,0.7,0.3c0.3,0,0.5-0.1,0.7-0.3C63.7,37.2,63.8,36.9,63.8,36.5z"/>
		<path class="st2" d="M68,37.8c0,0.6-0.1,1-0.4,1.3c-0.3,0.3-0.7,0.4-1.2,0.4c-0.2,0-0.4,0-0.5,0c-0.2,0-0.3-0.1-0.5-0.1v-0.6h0
			c0.1,0,0.2,0.1,0.4,0.1c0.2,0.1,0.4,0.1,0.6,0.1c0.2,0,0.4,0,0.5-0.1c0.1,0,0.2-0.1,0.3-0.2c0.1-0.1,0.1-0.2,0.2-0.3
			c0-0.1,0-0.2,0-0.4v-0.3c-0.2,0.1-0.3,0.2-0.5,0.3c-0.2,0.1-0.4,0.1-0.6,0.1c-0.4,0-0.7-0.1-1-0.4C65.1,37.4,65,37,65,36.4
			c0-0.3,0-0.6,0.1-0.8c0.1-0.2,0.2-0.4,0.3-0.6c0.1-0.1,0.3-0.3,0.5-0.3c0.2-0.1,0.4-0.1,0.6-0.1c0.2,0,0.4,0,0.5,0.1
			c0.1,0,0.3,0.1,0.4,0.2l0-0.1H68V37.8z M67.4,37.2v-1.9c-0.2-0.1-0.3-0.1-0.4-0.2c-0.1,0-0.3,0-0.4,0c-0.3,0-0.6,0.1-0.7,0.3
			c-0.2,0.2-0.3,0.5-0.3,0.9c0,0.4,0.1,0.7,0.2,0.9c0.1,0.2,0.4,0.3,0.7,0.3c0.2,0,0.3,0,0.5-0.1C67.1,37.4,67.3,37.3,67.4,37.2z"/>
		<path class="st2" d="M71.9,38.2h-0.6v-0.4c-0.2,0.2-0.4,0.3-0.6,0.4c-0.2,0.1-0.4,0.1-0.6,0.1c-0.4,0-0.6-0.1-0.8-0.3
			c-0.2-0.2-0.3-0.5-0.3-1v-2.2h0.6v2c0,0.2,0,0.3,0,0.5c0,0.1,0.1,0.2,0.1,0.3c0.1,0.1,0.1,0.2,0.2,0.2c0.1,0,0.2,0.1,0.4,0.1
			c0.1,0,0.3,0,0.5-0.1c0.2-0.1,0.3-0.2,0.5-0.3v-2.6h0.6V38.2z"/>
		<path class="st2" d="M75.5,38c-0.2,0.1-0.4,0.2-0.5,0.2c-0.2,0.1-0.4,0.1-0.5,0.1c-0.2,0-0.5,0-0.7-0.1c-0.2-0.1-0.4-0.2-0.5-0.3
			c-0.1-0.1-0.3-0.3-0.3-0.6c-0.1-0.2-0.1-0.5-0.1-0.8c0-0.6,0.2-1,0.5-1.3c0.3-0.3,0.7-0.5,1.2-0.5c0.2,0,0.4,0,0.6,0.1
			c0.2,0.1,0.4,0.1,0.5,0.2v0.6h0c-0.2-0.1-0.4-0.2-0.5-0.3c-0.2-0.1-0.4-0.1-0.5-0.1c-0.3,0-0.6,0.1-0.8,0.3
			c-0.2,0.2-0.3,0.5-0.3,1c0,0.4,0.1,0.7,0.3,1c0.2,0.2,0.4,0.3,0.8,0.3c0.1,0,0.2,0,0.4,0c0.1,0,0.2-0.1,0.3-0.1
			c0.1,0,0.2-0.1,0.2-0.1c0.1,0,0.1-0.1,0.2-0.1h0V38z M75.2,33l-0.8,1.2H74l0.5-1.2H75.2z"/>
		<path class="st2" d="M79.1,38.2h-0.6v-2c0-0.2,0-0.3,0-0.4c0-0.1-0.1-0.2-0.1-0.3c-0.1-0.1-0.1-0.2-0.2-0.2
			c-0.1,0-0.2-0.1-0.4-0.1c-0.2,0-0.3,0-0.5,0.1c-0.2,0.1-0.3,0.2-0.5,0.3v2.6h-0.6v-3.5h0.6v0.4c0.2-0.1,0.4-0.3,0.6-0.4
			c0.2-0.1,0.4-0.1,0.6-0.1c0.4,0,0.6,0.1,0.8,0.3c0.2,0.2,0.3,0.5,0.3,1V38.2z"/>
		<path class="st2" d="M83.1,36.5c0,0.6-0.1,1-0.4,1.3c-0.3,0.3-0.7,0.5-1.1,0.5c-0.5,0-0.9-0.2-1.1-0.5c-0.3-0.3-0.4-0.8-0.4-1.3
			c0-0.6,0.1-1,0.4-1.3c0.3-0.3,0.7-0.5,1.1-0.5c0.5,0,0.9,0.2,1.1,0.5C82.9,35.4,83.1,35.9,83.1,36.5z M82.5,36.5
			c0-0.4-0.1-0.8-0.3-1c-0.2-0.2-0.4-0.3-0.7-0.3c-0.3,0-0.5,0.1-0.7,0.3c-0.2,0.2-0.3,0.6-0.3,1c0,0.4,0.1,0.8,0.3,1
			c0.2,0.2,0.4,0.3,0.7,0.3c0.3,0,0.5-0.1,0.7-0.3C82.4,37.2,82.5,36.9,82.5,36.5z"/>
		<path class="st2" d="M86.4,37.2c0,0.3-0.1,0.6-0.4,0.8c-0.3,0.2-0.6,0.3-1,0.3c-0.2,0-0.5,0-0.7-0.1C84,38.1,83.9,38,83.7,38v-0.7
			h0c0.2,0.1,0.4,0.2,0.6,0.3c0.2,0.1,0.4,0.1,0.6,0.1c0.2,0,0.4,0,0.6-0.1c0.1-0.1,0.2-0.2,0.2-0.4c0-0.1,0-0.2-0.1-0.3
			c-0.1-0.1-0.2-0.1-0.4-0.2c-0.1,0-0.2,0-0.3-0.1c-0.1,0-0.2-0.1-0.4-0.1c-0.3-0.1-0.5-0.2-0.6-0.4c-0.1-0.2-0.2-0.3-0.2-0.6
			c0-0.1,0-0.3,0.1-0.4c0.1-0.1,0.1-0.2,0.3-0.3c0.1-0.1,0.3-0.2,0.4-0.2c0.2-0.1,0.4-0.1,0.6-0.1c0.2,0,0.4,0,0.6,0.1
			c0.2,0.1,0.4,0.1,0.5,0.2v0.6h0c-0.1-0.1-0.3-0.2-0.5-0.3c-0.2-0.1-0.4-0.1-0.6-0.1c-0.2,0-0.4,0-0.5,0.1
			c-0.1,0.1-0.2,0.2-0.2,0.4c0,0.1,0,0.3,0.1,0.3c0.1,0.1,0.2,0.1,0.4,0.2c0.1,0,0.2,0,0.4,0.1c0.1,0,0.2,0,0.3,0.1
			c0.3,0.1,0.5,0.2,0.6,0.3C86.3,36.7,86.4,36.9,86.4,37.2z"/>
		<path class="st2" d="M88.9,38.1c-0.1,0-0.2,0.1-0.4,0.1c-0.1,0-0.2,0-0.3,0c-0.3,0-0.6-0.1-0.8-0.3c-0.2-0.2-0.3-0.5-0.3-0.9v-1.8
			h-0.4v-0.5h0.4v-1h0.6v1h1.2v0.5h-1.2v1.6c0,0.2,0,0.3,0,0.4c0,0.1,0,0.2,0.1,0.3c0,0.1,0.1,0.1,0.2,0.2c0.1,0,0.2,0.1,0.4,0.1
			c0.1,0,0.2,0,0.3,0c0.1,0,0.2-0.1,0.2-0.1h0V38.1z"/>
		<path class="st2" d="M90.2,34.1h-0.6v-0.6h0.6V34.1z M90.2,38.2h-0.6v-3.5h0.6V38.2z"/>
		<path class="st2" d="M94.1,34.1h-0.6v-0.6h0.6V34.1z M94.1,38.2h-0.6v-3.5h0.6V38.2z"/>
		<path class="st2" d="M99.8,37.2c0,0.3-0.1,0.6-0.4,0.8c-0.3,0.2-0.6,0.3-1,0.3c-0.2,0-0.5,0-0.7-0.1c-0.2-0.1-0.4-0.1-0.5-0.2
			v-0.7h0c0.2,0.1,0.4,0.2,0.6,0.3c0.2,0.1,0.4,0.1,0.6,0.1c0.2,0,0.4,0,0.6-0.1c0.1-0.1,0.2-0.2,0.2-0.4c0-0.1,0-0.2-0.1-0.3
			c-0.1-0.1-0.2-0.1-0.4-0.2c-0.1,0-0.2,0-0.3-0.1c-0.1,0-0.2-0.1-0.4-0.1c-0.3-0.1-0.5-0.2-0.6-0.4c-0.1-0.2-0.2-0.3-0.2-0.6
			c0-0.1,0-0.3,0.1-0.4c0.1-0.1,0.1-0.2,0.3-0.3c0.1-0.1,0.3-0.2,0.4-0.2c0.2-0.1,0.4-0.1,0.6-0.1c0.2,0,0.4,0,0.6,0.1
			c0.2,0.1,0.4,0.1,0.5,0.2v0.6h0c-0.1-0.1-0.3-0.2-0.5-0.3c-0.2-0.1-0.4-0.1-0.6-0.1c-0.2,0-0.4,0-0.5,0.1
			c-0.1,0.1-0.2,0.2-0.2,0.4c0,0.1,0,0.3,0.1,0.3c0.1,0.1,0.2,0.1,0.4,0.2c0.1,0,0.2,0,0.4,0.1c0.1,0,0.2,0,0.3,0.1
			c0.3,0.1,0.5,0.2,0.6,0.3C99.7,36.7,99.8,36.9,99.8,37.2z"/>
		<path class="st2" d="M102.4,38.1c-0.1,0-0.2,0.1-0.4,0.1c-0.1,0-0.2,0-0.3,0c-0.3,0-0.6-0.1-0.8-0.3c-0.2-0.2-0.3-0.5-0.3-0.9
			v-1.8h-0.4v-0.5h0.4v-1h0.6v1h1.2v0.5h-1.2v1.6c0,0.2,0,0.3,0,0.4c0,0.1,0,0.2,0.1,0.3c0,0.1,0.1,0.1,0.2,0.2
			c0.1,0,0.2,0.1,0.4,0.1c0.1,0,0.2,0,0.3,0c0.1,0,0.2-0.1,0.2-0.1h0V38.1z"/>
		<path class="st2" d="M105.2,35.4L105.2,35.4c-0.1,0-0.2,0-0.3,0c-0.1,0-0.2,0-0.3,0c-0.2,0-0.3,0-0.5,0.1
			c-0.2,0.1-0.3,0.2-0.5,0.3v2.5h-0.6v-3.5h0.6v0.5c0.2-0.2,0.4-0.3,0.6-0.4c0.2-0.1,0.3-0.1,0.5-0.1c0.1,0,0.2,0,0.2,0
			c0,0,0.1,0,0.2,0V35.4z"/>
		<path class="st2" d="M108.5,38.2H108v-0.4c-0.2,0.2-0.4,0.3-0.6,0.4c-0.2,0.1-0.4,0.1-0.6,0.1c-0.4,0-0.6-0.1-0.8-0.3
			c-0.2-0.2-0.3-0.5-0.3-1v-2.2h0.6v2c0,0.2,0,0.3,0,0.5c0,0.1,0.1,0.2,0.1,0.3c0.1,0.1,0.1,0.2,0.2,0.2c0.1,0,0.2,0.1,0.4,0.1
			c0.1,0,0.3,0,0.5-0.1c0.2-0.1,0.3-0.2,0.5-0.3v-2.6h0.6V38.2z"/>
		<path class="st2" d="M112.2,38c-0.2,0.1-0.4,0.2-0.5,0.2c-0.2,0.1-0.4,0.1-0.5,0.1c-0.2,0-0.5,0-0.7-0.1c-0.2-0.1-0.4-0.2-0.5-0.3
			c-0.1-0.1-0.3-0.3-0.3-0.6c-0.1-0.2-0.1-0.5-0.1-0.8c0-0.6,0.2-1,0.5-1.3c0.3-0.3,0.7-0.5,1.2-0.5c0.2,0,0.4,0,0.6,0.1
			c0.2,0.1,0.4,0.1,0.5,0.2v0.6h0c-0.2-0.1-0.4-0.2-0.5-0.3c-0.2-0.1-0.4-0.1-0.5-0.1c-0.3,0-0.6,0.1-0.8,0.3
			c-0.2,0.2-0.3,0.5-0.3,1c0,0.4,0.1,0.7,0.3,1c0.2,0.2,0.4,0.3,0.8,0.3c0.1,0,0.2,0,0.4,0c0.1,0,0.2-0.1,0.3-0.1
			c0.1,0,0.2-0.1,0.2-0.1c0.1,0,0.1-0.1,0.2-0.1h0V38z M112.1,33l-0.7,1.2h-0.7L110,33h0.5l0.6,0.8l0.6-0.8H112.1z"/>
		<path class="st2" d="M115.7,38.2h-0.6v-2c0-0.2,0-0.3,0-0.4c0-0.1-0.1-0.2-0.1-0.3c-0.1-0.1-0.1-0.2-0.2-0.2
			c-0.1,0-0.2-0.1-0.4-0.1c-0.2,0-0.3,0-0.5,0.1c-0.2,0.1-0.3,0.2-0.5,0.3v2.6h-0.6v-3.5h0.6v0.4c0.2-0.1,0.4-0.3,0.6-0.4
			c0.2-0.1,0.4-0.1,0.6-0.1c0.4,0,0.6,0.1,0.8,0.3c0.2,0.2,0.3,0.5,0.3,1V38.2z"/>
		<path class="st2" d="M117.4,34.1h-0.6v-0.6h0.6V34.1z M117.4,38.2h-0.6v-3.5h0.6V38.2z"/>
		<path class="st2" d="M121.3,38.2h-0.6v-2c0-0.2,0-0.3,0-0.4c0-0.1-0.1-0.2-0.1-0.3c-0.1-0.1-0.1-0.2-0.2-0.2
			c-0.1,0-0.2-0.1-0.4-0.1c-0.2,0-0.3,0-0.5,0.1c-0.2,0.1-0.3,0.2-0.5,0.3v2.6h-0.6v-4.8h0.6v1.7c0.2-0.1,0.4-0.3,0.6-0.4
			c0.2-0.1,0.4-0.1,0.6-0.1c0.4,0,0.6,0.1,0.8,0.3c0.2,0.2,0.3,0.5,0.3,1V38.2z"/>
		<path class="st2" d="M127.6,36.4c0,0.3,0,0.5-0.1,0.8c-0.1,0.2-0.2,0.4-0.3,0.6c-0.1,0.2-0.3,0.3-0.5,0.4
			c-0.2,0.1-0.4,0.1-0.6,0.1c-0.2,0-0.3,0-0.5-0.1c-0.1,0-0.3-0.1-0.4-0.2v1.4h-0.6v-4.7h0.6v0.4c0.2-0.1,0.3-0.2,0.5-0.3
			c0.2-0.1,0.4-0.1,0.6-0.1c0.4,0,0.7,0.2,1,0.5C127.5,35.4,127.6,35.8,127.6,36.4z M127,36.4c0-0.4-0.1-0.7-0.2-0.9
			c-0.1-0.2-0.4-0.3-0.6-0.3c-0.2,0-0.3,0-0.5,0.1c-0.2,0.1-0.3,0.2-0.5,0.3v2c0.2,0.1,0.3,0.1,0.4,0.2c0.1,0,0.2,0,0.4,0
			c0.3,0,0.6-0.1,0.7-0.3C126.9,37.2,127,36.9,127,36.4z"/>
		<path class="st2" d="M130.6,35.4L130.6,35.4c-0.1,0-0.2,0-0.3,0c-0.1,0-0.2,0-0.3,0c-0.2,0-0.3,0-0.5,0.1
			c-0.2,0.1-0.3,0.2-0.5,0.3v2.5h-0.6v-3.5h0.6v0.5c0.2-0.2,0.4-0.3,0.6-0.4c0.2-0.1,0.3-0.1,0.5-0.1c0.1,0,0.2,0,0.2,0
			c0,0,0.1,0,0.2,0V35.4z"/>
		<path class="st2" d="M133.7,38.2h-0.6v-0.4c-0.1,0-0.1,0.1-0.2,0.1c-0.1,0.1-0.2,0.1-0.2,0.2c-0.1,0-0.2,0.1-0.3,0.1
			c-0.1,0-0.3,0-0.4,0c-0.3,0-0.6-0.1-0.8-0.3c-0.2-0.2-0.3-0.5-0.3-0.8c0-0.3,0.1-0.5,0.2-0.6c0.1-0.2,0.3-0.3,0.5-0.4
			c0.2-0.1,0.5-0.2,0.7-0.2c0.3,0,0.6-0.1,0.9-0.1v-0.1c0-0.1,0-0.2-0.1-0.3c0-0.1-0.1-0.2-0.2-0.2c-0.1,0-0.2-0.1-0.3-0.1
			c-0.1,0-0.2,0-0.4,0c-0.1,0-0.3,0-0.5,0.1c-0.2,0-0.4,0.1-0.6,0.2h0v-0.6c0.1,0,0.3-0.1,0.5-0.1c0.2,0,0.4-0.1,0.6-0.1
			c0.2,0,0.4,0,0.6,0.1c0.2,0,0.3,0.1,0.5,0.2c0.1,0.1,0.2,0.2,0.3,0.4c0.1,0.2,0.1,0.3,0.1,0.6V38.2z M133.1,37.3v-1
			c-0.2,0-0.4,0-0.6,0c-0.2,0-0.4,0.1-0.6,0.1c-0.2,0-0.3,0.1-0.4,0.2c-0.1,0.1-0.2,0.2-0.2,0.4c0,0.2,0.1,0.3,0.2,0.4
			c0.1,0.1,0.3,0.2,0.5,0.2c0.2,0,0.4,0,0.5-0.1C132.8,37.5,132.9,37.4,133.1,37.3z"/>
		<path class="st2" d="M137.8,38.2h-0.8l-1.4-1.5l-0.4,0.4v1.2h-0.6v-4.8h0.6v3.1l1.6-1.7h0.7l-1.6,1.6L137.8,38.2z"/>
		<path class="st2" d="M140.8,37.2c0,0.3-0.1,0.6-0.4,0.8c-0.3,0.2-0.6,0.3-1,0.3c-0.2,0-0.5,0-0.7-0.1c-0.2-0.1-0.4-0.1-0.5-0.2
			v-0.7h0c0.2,0.1,0.4,0.2,0.6,0.3c0.2,0.1,0.4,0.1,0.6,0.1c0.2,0,0.4,0,0.6-0.1c0.1-0.1,0.2-0.2,0.2-0.4c0-0.1,0-0.2-0.1-0.3
			c-0.1-0.1-0.2-0.1-0.4-0.2c-0.1,0-0.2,0-0.3-0.1c-0.1,0-0.2-0.1-0.4-0.1c-0.3-0.1-0.5-0.2-0.6-0.4c-0.1-0.2-0.2-0.3-0.2-0.6
			c0-0.1,0-0.3,0.1-0.4c0.1-0.1,0.1-0.2,0.3-0.3c0.1-0.1,0.3-0.2,0.4-0.2c0.2-0.1,0.4-0.1,0.6-0.1c0.2,0,0.4,0,0.6,0.1
			c0.2,0.1,0.4,0.1,0.5,0.2v0.6h0c-0.1-0.1-0.3-0.2-0.5-0.3c-0.2-0.1-0.4-0.1-0.6-0.1c-0.2,0-0.4,0-0.5,0.1
			c-0.1,0.1-0.2,0.2-0.2,0.4c0,0.1,0,0.3,0.1,0.3c0.1,0.1,0.2,0.1,0.4,0.2c0.1,0,0.2,0,0.4,0.1c0.1,0,0.2,0,0.3,0.1
			c0.3,0.1,0.5,0.2,0.6,0.3C140.8,36.7,140.8,36.9,140.8,37.2z"/>
		<path class="st2" d="M142.3,34.1h-0.6v-0.6h0.6V34.1z M142.2,38.2h-0.6v-3.5h0.6V38.2z"/>
	</g>
</g>
</svg>
